<?xml version="1.0" encoding="UTF-8" standalone="no"?>
<svg
   xmlns:dc="http://purl.org/dc/elements/1.1/"
   xmlns:cc="http://creativecommons.org/ns#"
   xmlns:rdf="http://www.w3.org/1999/02/22-rdf-syntax-ns#"
   xmlns:svg="http://www.w3.org/2000/svg"
   xmlns="http://www.w3.org/2000/svg"
   viewBox="0 0 400 400"
   height="400"
   width="400"
   xml:space="preserve"
   id="svg2"
   version="1.1"><metadata
     id="metadata8"><rdf:RDF><cc:Work
         rdf:about=""><dc:format>image/svg+xml</dc:format><dc:type
           rdf:resource="http://purl.org/dc/dcmitype/StillImage" /></cc:Work></rdf:RDF></metadata><defs
     id="defs6"><clipPath
       id="clipPath20"
       clipPathUnits="userSpaceOnUse"><path
         id="path18"
         d="M 3000,1500 C 3000,671.57 2328.43,0 1500,0 671.574,0 0,671.57 0,1500 c 0,828.43 671.574,1500 1500,1500 828.43,0 1500,-671.57 1500,-1500 z" /></clipPath></defs><g
     transform="matrix(1.3333333,0,0,-1.3333333,0,400)"
     id="g10"><g
       transform="scale(0.1)"
       id="g12"><g
         id="g14"><g
           clip-path="url(#clipPath20)"
           id="g16"><path
             id="path22"
             style="fill:#e41d25;fill-opacity:1;fill-rule:nonzero;stroke:none"
             d="M -750,3000 H 3750 V 0 H -750 v 3000" /><path
             id="path24"
             style="fill:#ffffff;fill-opacity:1;fill-rule:nonzero;stroke:none"
             d="m 843.75,2250 c 414.21,0 750,-335.79 750,-750 0,-414.21 -335.79,-750 -750,-750 -414.215,0 -750,335.79 -750,750 0,414.21 335.785,750 750,750" /><path
             id="path26"
             style="fill:#e41d25;fill-opacity:1;fill-rule:nonzero;stroke:none"
             d="m 1031.25,2100 c 331.37,0 600,-268.63 600,-600 0,-331.37 -268.63,-600 -600,-600 -331.371,0 -600,268.63 -600,600 0,331.37 268.629,600 600,600" /><path
             id="path28"
             style="fill:#ffffff;fill-opacity:1;fill-rule:nonzero;stroke:none"
             d="m 1437.5,1500 678.38,-220.42 -419.26,577.07 v -713.3 L 2115.88,1720.42 1437.5,1500" /></g></g></g></g></svg>